HIERARCHY
ROOT mixamorig:Hips
{
	OFFSET -0.000008 104.274872 1.554316
	CHANNELS 6 Xposition Yposition Zposition Xrotation Yrotation Zrotation
	JOINT mixamorig:Spine
	{
		OFFSET -0.000005 10.181595 0.131519
		CHANNELS 6 Xposition Yposition Zposition Xrotation Yrotation Zrotation
		JOINT mixamorig:Spine1
		{
			OFFSET -0.000000 9.893959 -1.470707
			CHANNELS 6 Xposition Yposition Zposition Xrotation Yrotation Zrotation
			JOINT mixamorig:Spine2
			{
				OFFSET -0.000000 9.220757 -1.370641
				CHANNELS 6 Xposition Yposition Zposition Xrotation Yrotation Zrotation
				JOINT mixamorig:Neck
				{
					OFFSET 0.000001 16.740417 -2.049036
					CHANNELS 6 Xposition Yposition Zposition Xrotation Yrotation Zrotation
					JOINT mixamorig:Head
					{
						OFFSET 0.000000 9.617874 1.685006
						CHANNELS 6 Xposition Yposition Zposition Xrotation Yrotation Zrotation
						JOINT mixamorig:HeadTop_End
						{
							OFFSET 0.000002 22.037354 7.501101
							CHANNELS 6 Xposition Yposition Zposition Xrotation Yrotation Zrotation
							End Site
							{
								OFFSET 0.000168 2310.654297 -282.823242
							}
						}
					}
				}
				JOINT mixamorig:RightShoulder
				{
					OFFSET -4.569970 11.014908 -2.160885
					CHANNELS 6 Xposition Yposition Zposition Xrotation Yrotation Zrotation
					JOINT mixamorig:RightArm
					{
						OFFSET -10.592851 -0.524811 -2.232101
						CHANNELS 6 Xposition Yposition Zposition Xrotation Yrotation Zrotation
						JOINT mixamorig:RightForeArm
						{
							OFFSET -27.841511 0.000031 -0.000004
							CHANNELS 6 Xposition Yposition Zposition Xrotation Yrotation Zrotation
							JOINT mixamorig:RightHand
							{
								OFFSET -28.328831 -0.000015 0.000015
								CHANNELS 6 Xposition Yposition Zposition Xrotation Yrotation Zrotation
								JOINT mixamorig:RightHandThumb1
								{
									OFFSET -2.464806 -1.573990 2.681852
									CHANNELS 6 Xposition Yposition Zposition Xrotation Yrotation Zrotation
									JOINT mixamorig:RightHandThumb2
									{
										OFFSET -3.215179 -1.872803 1.924282
										CHANNELS 6 Xposition Yposition Zposition Xrotation Yrotation Zrotation
										JOINT mixamorig:RightHandThumb3
										{
											OFFSET -2.654831 -1.527969 1.512609
											CHANNELS 6 Xposition Yposition Zposition Xrotation Yrotation Zrotation
											JOINT mixamorig:RightHandThumb4
											{
												OFFSET -2.018814 -1.152008 1.108052
												CHANNELS 6 Xposition Yposition Zposition Xrotation Yrotation Zrotation
												End Site
												{
													OFFSET -188.809540 -114.533607 132.431396
												}
											}
										}
									}
								}
								JOINT mixamorig:RightHandIndex1
								{
									OFFSET -9.108284 -0.517868 2.259835
									CHANNELS 6 Xposition Yposition Zposition Xrotation Yrotation Zrotation
									JOINT mixamorig:RightHandIndex2
									{
										OFFSET -3.699989 0.000000 0.001215
										CHANNELS 6 Xposition Yposition Zposition Xrotation Yrotation Zrotation
										JOINT mixamorig:RightHandIndex3
										{
											OFFSET -2.850006 0.000031 -0.000522
											CHANNELS 6 Xposition Yposition Zposition Xrotation Yrotation Zrotation
											JOINT mixamorig:RightHandIndex4
											{
												OFFSET -2.772186 -0.000015 -0.000020
												CHANNELS 6 Xposition Yposition Zposition Xrotation Yrotation Zrotation
												End Site
												{
													OFFSET -277.218445 0.000000 -0.050231
												}
											}
										}
									}
								}
								JOINT mixamorig:RightHandMiddle1
								{
									OFFSET -9.532516 -0.000031 -0.000023
									CHANNELS 6 Xposition Yposition Zposition Xrotation Yrotation Zrotation
									JOINT mixamorig:RightHandMiddle2
									{
										OFFSET -3.700005 -0.000015 0.003713
										CHANNELS 6 Xposition Yposition Zposition Xrotation Yrotation Zrotation
										JOINT mixamorig:RightHandMiddle3
										{
											OFFSET -2.949974 0.000015 -0.002054
											CHANNELS 6 Xposition Yposition Zposition Xrotation Yrotation Zrotation
											JOINT mixamorig:RightHandMiddle4
											{
												OFFSET -2.946640 0.000000 -0.000156
												CHANNELS 6 Xposition Yposition Zposition Xrotation Yrotation Zrotation
												End Site
												{
													OFFSET -294.664337 0.000000 -0.113670
												}
											}
										}
									}
								}
								JOINT mixamorig:RightHandRing1
								{
									OFFSET -9.103600 -0.043076 -1.865134
									CHANNELS 6 Xposition Yposition Zposition Xrotation Yrotation Zrotation
									JOINT mixamorig:RightHandRing2
									{
										OFFSET -3.379288 0.000000 -0.001055
										CHANNELS 6 Xposition Yposition Zposition Xrotation Yrotation Zrotation
										JOINT mixamorig:RightHandRing3
										{
											OFFSET -2.889687 -0.000015 0.000379
											CHANNELS 6 Xposition Yposition Zposition Xrotation Yrotation Zrotation
											JOINT mixamorig:RightHandRing4
											{
												OFFSET -2.638809 -0.000015 0.000941
												CHANNELS 6 Xposition Yposition Zposition Xrotation Yrotation Zrotation
												End Site
												{
													OFFSET -263.880371 0.000000 0.516020
												}
											}
										}
									}
								}
								JOINT mixamorig:RightHandPinky1
								{
									OFFSET -8.076683 -0.486710 -3.806280
									CHANNELS 6 Xposition Yposition Zposition Xrotation Yrotation Zrotation
									JOINT mixamorig:RightHandPinky2
									{
										OFFSET -3.600014 -0.000015 -0.003747
										CHANNELS 6 Xposition Yposition Zposition Xrotation Yrotation Zrotation
										JOINT mixamorig:RightHandPinky3
										{
											OFFSET -2.099983 0.000000 -0.005739
											CHANNELS 6 Xposition Yposition Zposition Xrotation Yrotation Zrotation
											JOINT mixamorig:RightHandPinky4
											{
												OFFSET -2.115768 -0.000031 -0.003680
												CHANNELS 6 Xposition Yposition Zposition Xrotation Yrotation Zrotation
												End Site
												{
													OFFSET -211.577087 0.000000 -0.350686
												}
											}
										}
									}
								}
							}
						}
					}
				}
				JOINT mixamorig:LeftShoulder
				{
					OFFSET 4.570447 11.014725 -2.160855
					CHANNELS 6 Xposition Yposition Zposition Xrotation Yrotation Zrotation
					JOINT mixamorig:LeftArm
					{
						OFFSET 10.592371 -0.524597 -2.232119
						CHANNELS 6 Xposition Yposition Zposition Xrotation Yrotation Zrotation
						JOINT mixamorig:LeftForeArm
						{
							OFFSET 27.841532 -0.000031 0.000026
							CHANNELS 6 Xposition Yposition Zposition Xrotation Yrotation Zrotation
							JOINT mixamorig:LeftHand
							{
								OFFSET 28.328846 -0.000061 0.000022
								CHANNELS 6 Xposition Yposition Zposition Xrotation Yrotation Zrotation
								JOINT mixamorig:LeftHandThumb1
								{
									OFFSET 2.466141 -1.576172 2.681732
									CHANNELS 6 Xposition Yposition Zposition Xrotation Yrotation Zrotation
									JOINT mixamorig:LeftHandThumb2
									{
										OFFSET 3.217812 -1.872070 1.916482
										CHANNELS 6 Xposition Yposition Zposition Xrotation Yrotation Zrotation
										JOINT mixamorig:LeftHandThumb3
										{
											OFFSET 2.656029 -1.528778 1.514513
											CHANNELS 6 Xposition Yposition Zposition Xrotation Yrotation Zrotation
											JOINT mixamorig:LeftHandThumb4
											{
												OFFSET 2.020889 -1.154053 1.115139
												CHANNELS 6 Xposition Yposition Zposition Xrotation Yrotation Zrotation
												End Site
												{
													OFFSET 190.885437 -115.081749 130.048782
												}
											}
										}
									}
								}
								JOINT mixamorig:LeftHandIndex1
								{
									OFFSET 9.109314 -0.518021 2.259871
									CHANNELS 6 Xposition Yposition Zposition Xrotation Yrotation Zrotation
									JOINT mixamorig:LeftHandIndex2
									{
										OFFSET 3.699989 0.000000 -0.000322
										CHANNELS 6 Xposition Yposition Zposition Xrotation Yrotation Zrotation
										JOINT mixamorig:LeftHandIndex3
										{
											OFFSET 2.850006 0.000000 0.000352
											CHANNELS 6 Xposition Yposition Zposition Xrotation Yrotation Zrotation
											JOINT mixamorig:LeftHandIndex4
											{
												OFFSET 2.774864 -0.000031 -0.000027
												CHANNELS 6 Xposition Yposition Zposition Xrotation Yrotation Zrotation
												End Site
												{
													OFFSET 277.486267 0.000000 -0.009857
												}
											}
										}
									}
								}
								JOINT mixamorig:LeftHandMiddle1
								{
									OFFSET 9.533394 0.000061 0.000044
									CHANNELS 6 Xposition Yposition Zposition Xrotation Yrotation Zrotation
									JOINT mixamorig:LeftHandMiddle2
									{
										OFFSET 3.699989 -0.000015 -0.000231
										CHANNELS 6 Xposition Yposition Zposition Xrotation Yrotation Zrotation
										JOINT mixamorig:LeftHandMiddle3
										{
											OFFSET 2.949997 -0.000015 -0.000059
											CHANNELS 6 Xposition Yposition Zposition Xrotation Yrotation Zrotation
											JOINT mixamorig:LeftHandMiddle4
											{
												OFFSET 2.952896 0.000031 0.000063
												CHANNELS 6 Xposition Yposition Zposition Xrotation Yrotation Zrotation
												End Site
												{
													OFFSET 295.289337 0.000000 0.022810
												}
											}
										}
									}
								}
								JOINT mixamorig:LeftHandRing1
								{
									OFFSET 9.104523 -0.042999 -1.865074
									CHANNELS 6 Xposition Yposition Zposition Xrotation Yrotation Zrotation
									JOINT mixamorig:LeftHandRing2
									{
										OFFSET 3.150009 -0.000031 0.000043
										CHANNELS 6 Xposition Yposition Zposition Xrotation Yrotation Zrotation
										JOINT mixamorig:LeftHandRing3
										{
											OFFSET 2.949982 -0.000015 0.000040
											CHANNELS 6 Xposition Yposition Zposition Xrotation Yrotation Zrotation
											JOINT mixamorig:LeftHandRing4
											{
												OFFSET 2.644348 0.000000 0.000057
												CHANNELS 6 Xposition Yposition Zposition Xrotation Yrotation Zrotation
												End Site
												{
													OFFSET 264.434631 0.000000 0.012105
												}
											}
										}
									}
								}
								JOINT mixamorig:LeftHandPinky1
								{
									OFFSET 8.077789 -0.486847 -3.806259
									CHANNELS 6 Xposition Yposition Zposition Xrotation Yrotation Zrotation
									JOINT mixamorig:LeftHandPinky2
									{
										OFFSET 3.599953 0.000031 0.014727
										CHANNELS 6 Xposition Yposition Zposition Xrotation Yrotation Zrotation
										JOINT mixamorig:LeftHandPinky3
										{
											OFFSET 2.100021 0.000015 0.007705
											CHANNELS 6 Xposition Yposition Zposition Xrotation Yrotation Zrotation
											JOINT mixamorig:LeftHandPinky4
											{
												OFFSET 2.125504 0.000031 0.007517
												CHANNELS 6 Xposition Yposition Zposition Xrotation Yrotation Zrotation
												End Site
												{
													OFFSET 212.550781 0.000000 0.625752
												}
											}
										}
									}
								}
							}
						}
					}
				}
			}
		}
	}
	JOINT mixamorig:RightUpLeg
	{
		OFFSET -8.207787 -6.751648 -1.599560
		CHANNELS 6 Xposition Yposition Zposition Xrotation Yrotation Zrotation
		JOINT mixamorig:RightLeg
		{
			OFFSET -0.000002 -44.370117 0.345942
			CHANNELS 6 Xposition Yposition Zposition Xrotation Yrotation Zrotation
			JOINT mixamorig:RightFoot
			{
				OFFSET 0.000003 -44.423679 -3.043532
				CHANNELS 6 Xposition Yposition Zposition Xrotation Yrotation Zrotation
				JOINT mixamorig:RightToeBase
				{
					OFFSET -0.000002 -8.728671 10.710558
					CHANNELS 6 Xposition Yposition Zposition Xrotation Yrotation Zrotation
					JOINT mixamorig:RightToe_End
					{
						OFFSET -0.000001 -0.000679 9.278119
						CHANNELS 6 Xposition Yposition Zposition Xrotation Yrotation Zrotation
						End Site
						{
							OFFSET 0.000000 -0.067690 927.812134
						}
					}
				}
			}
		}
	}
	JOINT mixamorig:LeftUpLeg
	{
		OFFSET 8.207793 -6.751686 -1.599556
		CHANNELS 6 Xposition Yposition Zposition Xrotation Yrotation Zrotation
		JOINT mixamorig:LeftLeg
		{
			OFFSET -0.000004 -44.370014 0.346954
			CHANNELS 6 Xposition Yposition Zposition Xrotation Yrotation Zrotation
			JOINT mixamorig:LeftFoot
			{
				OFFSET -0.000001 -44.423672 -3.044401
				CHANNELS 6 Xposition Yposition Zposition Xrotation Yrotation Zrotation
				JOINT mixamorig:LeftToeBase
				{
					OFFSET -0.000002 -8.728669 10.710558
					CHANNELS 6 Xposition Yposition Zposition Xrotation Yrotation Zrotation
					JOINT mixamorig:LeftToe_End
					{
						OFFSET -0.000003 -0.000679 9.278133
						CHANNELS 6 Xposition Yposition Zposition Xrotation Yrotation Zrotation
						End Site
						{
							OFFSET 0.000000 -0.068021 927.813477
						}
					}
				}
			}
		}
	}
}
MOTION
Frames: 3
Frame Time: 0.033333
0.000006 104.270477 1.554256 0.000010 0.000003 -0.000113 -0.000005 10.181587 0.131522 0.000001 -0.000003 0.000084 -0.000000 9.893967 -1.470711 0.000001 0.000000 -0.000000 -0.000000 9.220802 -1.370642 0.000000 -0.000000 -0.000000 0.000001 16.740433 -2.049030 0.000000 -0.000000 -0.000000 0.000000 9.617859 1.685014 0.000000 0.000000 0.000000 0.000002 22.037384 7.501101 0.000000 -0.000000 0.000000 -4.569968 11.014880 -2.160881 0.000008 0.000001 -0.000038 -10.592872 -0.524776 -2.231887 72.859663 31.451703 -23.480305 -27.841501 0.000001 0.000563 -40.981750 106.990952 53.582701 -28.328829 0.000009 0.000032 -0.000317 -0.000041 0.000004 -2.464378 -1.573878 2.682332 -39.719340 -151.126856 6.235269 -3.215213 -1.872466 1.924597 141.694679 32.780175 44.153577 -2.654980 -1.527832 1.513046 148.822241 28.644427 -17.632673 -2.018823 -1.151998 1.108076 -0.000003 0.000001 0.000004 -9.108359 -0.517556 2.260188 113.370226 14.179573 -21.500898 -3.700058 0.000321 0.001565 109.674349 10.879137 -15.364207 -2.850076 0.000366 -0.000197 109.968334 8.792895 -12.523461 -2.772139 -0.000015 -0.000021 -0.000001 0.000002 -0.000001 -9.532561 0.000272 0.000312 109.800496 13.888228 -19.860966 -3.700068 0.000323 0.004055 109.942174 10.466876 -14.756853 -2.950045 0.000343 -0.001703 111.346270 9.977078 -14.558924 -2.946616 0.000000 -0.000150 -0.000001 0.000001 -0.000001 -9.103690 -0.042779 -1.864783 109.206795 17.976961 -25.036842 -3.379341 0.000309 -0.000710 115.163096 10.709819 -16.819775 -2.889755 0.000312 0.000768 119.961932 8.565536 -14.851171 -2.638811 -0.000003 0.000946 0.000000 -0.000000 0.000001 -8.076761 -0.486420 -3.805971 93.218996 23.406411 -24.552599 -3.600049 0.000262 -0.003476 98.050835 12.437275 -13.874101 -2.100015 0.000313 -0.005420 101.679189 7.295898 -8.676599 -2.115774 -0.000037 -0.003677 0.000003 -0.000001 -0.000007 4.570446 11.014691 -2.160851 -0.000018 0.000010 -0.000021 10.592509 -0.524534 -2.232390 60.653091 -60.751165 37.850456 27.841785 -0.000052 -0.000116 212.679059 -73.977232 222.533068 28.328831 -0.000014 0.000035 0.000019 -0.000089 0.000000 2.466159 -1.576161 2.681865 110.798051 148.089580 -156.457231 3.217792 -1.872019 1.916544 247.357787 46.522358 56.484613 2.656039 -1.528770 1.514594 61.063578 137.766732 239.995635 2.020891 -1.154082 1.115143 -0.000000 -0.000000 0.000003 9.109060 -0.517767 2.259967 190.040342 -8.789527 277.642026 3.699729 0.000287 -0.000205 11.007973 -170.362499 97.627247 2.849761 0.000294 0.000455 9.739134 -172.156557 102.356245 2.774880 -0.000031 -0.000026 -0.000003 0.000000 -0.000003 9.533176 0.000365 0.000141 191.691773 -7.182074 -62.993721 3.699801 0.000321 -0.000124 192.098688 -7.374396 -62.601491 2.949800 0.000350 0.000058 12.872867 -172.662278 120.765927 2.952871 -0.000014 0.000064 0.000002 -0.000001 0.000001 9.104368 -0.042664 -1.864964 194.212686 -6.306166 -47.684249 3.149788 0.000408 0.000175 195.044002 -7.877731 -55.084379 2.949761 0.000462 0.000177 -163.442916 -7.873612 -50.629969 2.644324 -0.000003 0.000049 -0.000001 -0.000001 0.000000 8.077579 -0.486508 -3.806143 193.667623 -7.099780 -56.144179 3.599766 0.000434 0.014839 191.435080 -4.539095 -45.285858 2.099872 0.000455 0.007815 191.440381 -2.664636 -28.961658 2.125499 0.000000 0.007516 0.000001 0.000001 -0.000001 -8.207786 -6.751667 -1.599560 -0.077001 -0.000003 0.000080 -0.000002 -44.370110 0.345938 0.153719 -0.000000 -0.000000 0.000000 -44.423679 -3.043532 -0.076700 0.000000 -0.000002 -0.000006 -8.728667 10.710559 -0.000009 -0.000000 -0.000000 -0.000001 -0.000679 9.278123 0.000000 -0.000000 -0.000000 8.207792 -6.751710 -1.599556 -0.074518 -0.000003 0.000081 -0.000002 -44.370014 0.346960 0.148822 0.000002 0.000000 -0.000001 -44.423664 -3.044403 -0.074314 0.000000 -0.000002 -0.000004 -8.728671 10.710558 0.000007 -0.000000 -0.000000 0.000000 -0.000680 9.278137 -0.000000 0.000000 -0.000001 
0.000006 104.270477 1.554256 0.000010 0.000003 -0.000113 -0.000005 10.181587 0.131522 0.000001 -0.000003 0.000084 -0.000000 9.893967 -1.470711 0.000001 0.000000 -0.000000 -0.000000 9.220802 -1.370642 0.000000 -0.000000 -0.000000 0.000001 16.740433 -2.049030 0.000000 -0.000000 -0.000000 0.000000 9.617859 1.685014 0.000000 0.000000 0.000000 0.000002 22.037384 7.501101 0.000000 -0.000000 0.000000 -4.569968 11.014880 -2.160881 0.000008 0.000001 -0.000038 -10.592873 -0.524779 -2.231895 72.691791 32.091599 -23.897963 -27.841503 -0.000008 0.000563 -40.766903 106.705457 53.080077 -28.328819 0.000009 0.000037 -0.000320 -0.000042 0.000003 -2.464371 -1.573832 2.682336 -42.035341 -152.629210 1.859203 -3.215198 -1.872479 1.924588 141.774701 32.820760 44.202928 -2.654935 -1.527838 1.513047 149.126785 28.566180 -18.247279 -2.018838 -1.151998 1.108059 -0.000002 -0.000002 0.000004 -9.108358 -0.517563 2.260188 113.199259 14.029958 -21.210145 -3.700069 0.000326 0.001561 109.797354 10.550005 -14.934846 -2.850070 0.000367 -0.000200 110.036035 8.485988 -12.103076 -2.772165 -0.000014 -0.000015 0.000001 -0.000000 0.000001 -9.532563 0.000278 0.000315 109.407193 13.609604 -19.330964 -3.700068 0.000320 0.004041 109.903324 9.977132 -14.054576 -2.950029 0.000324 -0.001708 111.191013 9.493202 -13.816320 -2.946624 -0.000015 -0.000154 -0.000002 -0.000000 -0.000000 -9.103691 -0.042769 -1.864810 109.113419 17.534233 -24.387363 -3.379334 0.000297 -0.000696 115.021506 9.936937 -15.574918 -2.889755 0.000329 0.000761 119.644232 7.968029 -13.739787 -2.638804 -0.000015 0.000941 -0.000001 0.000003 0.000001 -8.076765 -0.486404 -3.805972 93.511451 22.801046 -24.034949 -3.600066 0.000276 -0.003470 98.170917 11.494878 -12.824128 -2.100034 0.000317 -0.005427 101.316362 6.544128 -7.708203 -2.115762 -0.000029 -0.003678 -0.000000 -0.000000 -0.000002 4.570446 11.014691 -2.160851 -0.000018 0.000010 -0.000021 10.592510 -0.524535 -2.232390 61.203078 -60.523249 38.076682 27.841789 -0.000075 -0.000110 212.844213 -74.003146 222.721500 28.328835 -0.000013 0.000038 0.000019 -0.000089 -0.000001 2.466157 -1.576130 2.681891 110.943630 151.272407 -157.024779 3.217807 -1.872011 1.916530 248.966460 43.947804 54.009004 2.656030 -1.528762 1.514615 64.277114 139.862166 236.425741 2.020910 -1.154055 1.115146 0.000002 -0.000001 0.000004 9.109050 -0.517771 2.259974 189.314184 -9.184141 270.809050 3.699728 0.000248 -0.000219 10.769694 -169.940052 93.920374 2.849757 0.000288 0.000458 10.235050 -171.595116 101.265177 2.774899 -0.000030 -0.000028 0.000001 0.000002 0.000004 9.533187 0.000384 0.000159 191.111493 -7.195682 -65.740195 3.699811 0.000353 -0.000119 192.710536 -7.291694 -59.540958 2.949785 0.000345 0.000058 13.680117 -172.270089 121.215736 2.952881 -0.000011 0.000067 -0.000001 0.000001 0.000003 9.104349 -0.042658 -1.864954 193.362765 -6.308954 -50.396510 3.149801 0.000421 0.000175 195.710929 -7.919650 -53.292209 2.949752 0.000465 0.000182 -162.155904 -8.479849 -50.560325 2.644326 0.000036 0.000055 0.000001 -0.000001 -0.000003 8.077579 -0.486520 -3.806135 192.380843 -7.432073 -63.024478 3.599752 0.000446 0.014842 190.864363 -4.999381 -51.197821 2.099885 0.000457 0.007823 191.574075 -3.166937 -33.099274 2.125497 0.000002 0.007517 0.000001 -0.000000 -0.000000 -8.207786 -6.751667 -1.599560 -0.077001 -0.000003 0.000080 -0.000002 -44.370110 0.345938 0.153719 -0.000000 -0.000000 0.000000 -44.423679 -3.043532 -0.076700 0.000000 -0.000002 -0.000006 -8.728667 10.710559 -0.000009 -0.000000 -0.000000 -0.000001 -0.000679 9.278123 0.000000 -0.000000 -0.000000 8.207792 -6.751710 -1.599556 -0.074518 -0.000003 0.000081 -0.000002 -44.370014 0.346960 0.148822 0.000002 0.000000 -0.000001 -44.423664 -3.044403 -0.074314 0.000000 -0.000002 -0.000004 -8.728671 10.710558 0.000007 -0.000000 -0.000000 0.000000 -0.000680 9.278137 -0.000000 0.000000 -0.000001 
0.000006 104.270477 1.554256 0.000010 0.000003 -0.000113 -0.000005 10.181587 0.131522 0.000001 -0.000003 0.000084 -0.000000 9.893967 -1.470711 0.000001 0.000000 -0.000000 -0.000000 9.220802 -1.370642 0.000000 -0.000000 -0.000000 0.000001 16.740433 -2.049030 0.000000 -0.000000 -0.000000 0.000000 9.617859 1.685014 0.000000 0.000000 0.000000 0.000002 22.037384 7.501101 0.000000 -0.000000 0.000000 -4.569968 11.014880 -2.160881 0.000008 0.000001 -0.000038 -10.592872 -0.524771 -2.231886 72.590308 30.892304 -22.943195 -27.841509 0.000006 0.000559 -40.647306 106.741841 52.963944 -28.328840 0.000022 0.000029 -0.000319 -0.000043 0.000006 -2.464386 -1.573878 2.682347 -38.307225 -149.735300 8.623878 -3.215189 -1.872441 1.924593 141.166637 32.715872 46.528598 -2.654969 -1.527859 1.513044 149.016327 28.500375 -18.918697 -2.018831 -1.152003 1.108058 -0.000001 -0.000001 0.000004 -9.108368 -0.517567 2.260199 113.532251 14.173760 -21.557057 -3.700042 0.000321 0.001570 109.952898 10.853335 -15.406369 -2.850079 0.000360 -0.000182 110.461569 8.844578 -12.711922 -2.772146 -0.000015 -0.000020 -0.000002 0.000003 -0.000001 -9.532572 0.000268 0.000320 109.797456 13.704106 -19.601379 -3.700056 0.000307 0.004056 110.376069 10.144716 -14.416106 -2.950063 0.000341 -0.001714 112.029562 9.845829 -14.551976 -2.946632 -0.000000 -0.000155 0.000001 0.000002 -0.000000 -9.103704 -0.042778 -1.864801 109.099991 17.519930 -24.361868 -3.379359 0.000299 -0.000689 115.024088 10.155702 -15.915469 -2.889781 0.000341 0.000770 120.138629 8.330330 -14.499254 -2.638811 -0.000001 0.000937 -0.000000 -0.000001 0.000001 -8.076778 -0.486424 -3.805961 93.038474 23.575634 -24.655041 -3.600070 0.000272 -0.003472 97.931853 12.423146 -13.829237 -2.100008 0.000313 -0.005428 101.786887 7.201744 -8.577943 -2.115774 -0.000044 -0.003679 -0.000002 -0.000001 -0.000007 4.570446 11.014691 -2.160851 -0.000018 0.000010 -0.000021 10.592506 -0.524528 -2.232388 64.695695 -59.898833 40.095762 27.841768 -0.000062 -0.000108 216.630036 -72.976541 228.219488 28.328833 -0.000028 0.000019 0.000024 -0.000088 -0.000000 2.466184 -1.576116 2.681890 112.212952 166.101595 -159.811359 3.217842 -1.871978 1.916555 266.176679 32.854723 37.964845 2.656039 -1.528764 1.514626 77.594330 145.597093 224.499357 2.020875 -1.154086 1.115140 0.000000 0.000002 0.000003 9.109111 -0.517699 2.260009 199.592075 -11.477418 299.613980 3.699777 0.000316 -0.000166 22.805018 -166.658883 119.762176 2.849840 0.000347 0.000506 22.960523 -169.005914 129.293814 2.774876 -0.000027 -0.000040 0.000000 0.000001 0.000001 9.533266 0.000399 0.000188 201.728121 -8.554367 -42.562112 3.699842 0.000355 -0.000069 204.210649 -9.643219 -42.933234 2.949875 0.000355 0.000101 25.160511 -170.225540 138.065540 2.952871 -0.000016 0.000085 0.000005 -0.000000 0.000001 9.104406 -0.042660 -1.864923 203.586246 -7.608723 -35.337117 3.149857 0.000422 0.000213 206.805929 -10.090083 -40.660656 2.949836 0.000393 0.000229 -150.928124 -10.080012 -37.572980 2.644325 0.000017 0.000063 0.000005 -0.000001 0.000000 8.077593 -0.486515 -3.806122 200.071431 -9.257483 -50.287025 3.599786 0.000405 0.014861 197.564192 -6.828825 -43.626187 2.099887 0.000422 0.007837 197.185102 -4.359073 -30.092014 2.125491 -0.000019 0.007518 0.000001 0.000000 -0.000001 -8.207786 -6.751667 -1.599560 -0.077001 -0.000003 0.000080 -0.000002 -44.370110 0.345938 0.153719 -0.000000 -0.000000 0.000000 -44.423679 -3.043532 -0.076700 0.000000 -0.000002 -0.000006 -8.728667 10.710559 -0.000009 -0.000000 -0.000000 -0.000001 -0.000679 9.278123 0.000000 -0.000000 -0.000000 8.207792 -6.751710 -1.599556 -0.074518 -0.000003 0.000081 -0.000002 -44.370014 0.346960 0.148822 0.000002 0.000000 -0.000001 -44.423664 -3.044403 -0.074314 0.000000 -0.000002 -0.000004 -8.728671 10.710558 0.000007 -0.000000 -0.000000 0.000000 -0.000680 9.278137 -0.000000 0.000000 -0.000001 
